<svg width="42" height="36" viewBox="0 0 42 36" fill="none" xmlns="http://www.w3.org/2000/svg">
<path d="M14.694 13.7798L28.5802 13.7797C28.6955 13.7797 28.789 13.8732 28.789 13.9885V19.6865C28.789 20.195 28.4234 20.6318 27.9223 20.7186C23.3619 21.5075 21.4342 21.489 16.9668 22.2495C16.3664 22.3517 15.7988 21.9366 15.7298 21.3315C15.4109 18.5342 14.5936 11.3645 14.4787 10.3502C14.3356 9.08567 12.3908 9.18581 11.7363 9.18528" stroke="black" stroke-width="1.57895"/>
<path d="M25.4551 25.3342C25.4551 26.1185 26.0909 26.7543 26.8752 26.7543C27.6595 26.7543 28.2953 26.1185 28.2953 25.3342C28.2953 24.55 27.6595 23.9141 26.8752 23.9141C26.0909 23.9141 25.4551 24.55 25.4551 25.3342Z" fill="black"/>
<path d="M15.3613 25.3342C15.3613 26.1185 15.9971 26.7543 16.7814 26.7543C17.5657 26.7543 18.2015 26.1185 18.2015 25.3342C18.2015 24.55 17.5657 23.9141 16.7814 23.9141C15.9971 23.9141 15.3613 24.55 15.3613 25.3342Z" fill="black"/>
</svg>
